
<svg id="jump" xmlns="http://www.w3.org/2000/svg"  viewBox="0 0 512 512">
<title>jump</title>
<path d="M99.868 318.514v56.748c0 83.149 51.243 129.824 114.456 129.824v0 0c30.356 0 60.788 0.724 82.254-27.511s32.202-62.382 32.202-102.313v-322.935l-65.403 0.583v323.734c0 35.635-21.961 63.142-49.053 63.142v0c0-0.461 0-0.577 0-1.037-24.448 4.147-49.053-27.851-49.053-63.486v-56.751l-65.403 0z"></path>
<path d="M178.844 130.125l105.288-121.749 47.971 41.486-105.288 121.749-47.971-41.486z"></path>
<path d="M284.978 6.91l127.154 103.706-40.086 49.148-127.154-103.706 40.086-49.148z"></path>
</svg>
