<svg id="butterfly" xmlns="http://www.w3.org/2000/svg" width="1381" height="1024" viewBox="0 0 1381 1024">
<title>butterfly</title>
<path fill="#faf" d="M83.692 71.723c-5.069 8.77-17.742 10.93-28.306 4.824s-15.016-18.167-9.945-26.939c5.069-8.77 17.742-10.93 28.306-4.824s15.016 18.167 9.945 26.939z"></path>
<path fill="#faf" d="M89.587 25.657c2.027 8.014-6.514 17.087-19.077 20.262s-24.388-0.753-26.414-8.77c-2.027-8.014 6.514-17.087 19.077-20.262s24.388 0.753 26.414 8.77z"></path>
<path fill="#faf" d="M44.208 49.343c5.159 8.72 0.833 20.822-9.67 27.039s-23.193 4.183-28.354-4.534c-5.159-8.72-0.833-20.822 9.67-27.039s23.193-4.183 28.354 4.534z"></path>
<path fill="#faf" d="M45.523 38.125c-2.253 7.954-14.186 11.54-26.654 8.009s-20.742-12.846-18.492-20.798c2.253-7.954 14.186-11.54 26.654-8.009s20.742 12.846 18.492 20.798z"></path>
<path fill="#ffd4aa" d="M52.536 45.547c0 17.147-3.493 31.050-7.804 31.050s-7.804-13.901-7.804-31.050c0-17.147 3.493-31.050 7.804-31.050s7.804 13.901 7.804 31.050z"></path>
<path fill="#faf" d="M36.286 7.133l1.452-0.733 6.019 11.895-1.452 0.733-6.019-11.895z"></path>
<path fill="#faf" d="M39.546 4.423c0 2.163-1.753 3.913-3.913 3.913s-3.913-1.753-3.913-3.913c0-2.163 1.753-3.913 3.913-3.913s3.913 1.753 3.913 3.913z"></path>
<path fill="#faf" d="M50.294 4.693l1.663 0.613-4.919 13.386-1.663-0.613 4.919-13.386z"></path>
<path fill="#faf" d="M55.495 3.773c0 2.083-1.688 3.773-3.773 3.773s-3.773-1.688-3.773-3.773c0-2.083 1.688-3.773 3.773-3.773s3.773 1.688 3.773 3.773z"></path>
</svg>
