<svg id="grass" xmlns="http://www.w3.org/2000/svg"   viewBox="0 0 1349 1024">
<title>grass</title>
<path fill="#007f3f" d="M-0.006 243.122c0 0 204.614 1.44 204.614 1.44s-17.292-152.739-17.292-152.739c0 0-17.292 93.661-17.292 93.661s-31.701-115.274-40.349-110.951c-8.648 4.321 15.849 96.544-8.648 97.984s-50.434-184.441-51.876-171.473c-1.44 12.966-4.321 161.387-4.321 161.387s-27.378 40.349-27.378-50.434c0-90.775-8.648 60.519-12.966 60.519s-17.292-72.047-17.292-72.047c0 0-7.207 142.652-7.207 142.652z"></path>
<path fill="#007f3f" d="M190.196 242.726c0 0 204.614 1.44 204.614 1.44s-17.292-152.739-17.292-152.739c0 0-17.292 93.661-17.292 93.661s-31.701-115.274-40.349-110.951c-8.648 4.321 15.849 96.544-8.648 97.984s-50.434-184.441-51.876-171.473c-1.44 12.966-4.321 161.387-4.321 161.387s-27.378 40.349-27.378-50.434c0-90.775-8.648 60.519-12.966 60.519s-17.292-72.047-17.292-72.047c0 0-7.207 142.652-7.207 142.652z"></path>
<path fill="#007f3f" d="M360.223 244.167c0 0 204.614 1.44 204.614 1.44s-17.292-152.739-17.292-152.739c0 0-17.292 93.661-17.292 93.661s-31.701-115.274-40.349-110.951c-8.648 4.321 15.849 96.544-8.648 97.984s-50.434-184.441-51.876-171.473c-1.44 12.966-4.321 161.387-4.321 161.387s-27.378 40.349-27.378-50.434c0-90.775-8.648 60.519-12.966 60.519s-17.292-72.047-17.292-72.047c0 0-7.207 142.652-7.207 142.652z"></path>
<path fill="#007f3f" d="M538.9 244.167c0 0 204.614 1.44 204.614 1.44s-17.292-152.739-17.292-152.739c0 0-17.292 93.661-17.292 93.661s-31.701-115.274-40.349-110.951c-8.648 4.321 15.849 96.544-8.648 97.984s-50.434-184.441-51.876-171.473c-1.44 12.966-4.321 161.387-4.321 161.387s-27.378 40.349-27.378-50.434c0-90.775-8.648 60.519-12.966 60.519s-17.292-72.047-17.292-72.047c0 0-7.207 142.652-7.207 142.652z"></path>
<path fill="#007f3f" d="M721.898 242.726c0 0 204.614 1.44 204.614 1.44s-17.292-152.739-17.292-152.739c0 0-17.292 93.661-17.292 93.661s-31.701-115.274-40.349-110.951c-8.648 4.321 15.849 96.544-8.648 97.984s-50.434-184.441-51.876-171.473c-1.44 12.966-4.321 161.387-4.321 161.387s-27.378 40.349-27.378-50.434c0-90.775-8.648 60.519-12.966 60.519s-17.292-72.047-17.292-72.047c0 0-7.207 142.652-7.207 142.652z"></path>
</svg>
