
<svg xmlns="http://www.w3.org/2000/svg">

  <symbol id="downstairs" viewBox="0 0 1009 1024">
    <title>Downtairs icon</title>
    <path d="M843.48 381.097h-337.814v-380.041h-504.61v124.569h380.041v380.041h337.814v266.622l-65.607-65.607-88.084 88.084 137.987 137.987-0.75 0.75 88.084 88.084 216.477-216.477-88.084-88.084-75.454 75.454v-411.382z"></path>
  </symbol>

  <symbol id="pickup" viewBox="0 0 582 1024">
      <title>Pickup icon</title>
      <path d="M356.149 317.378l89.017-90.911-220.256-224.942-1.58 1.614-1.58-1.614-220.256 224.942 89.017 90.911 66.29-67.701v773.257h125.867v-312.050l1.255 0.226c9.027 1.623 18.233 2.445 27.545 2.445h115.2c85.42 0 154.667-69.247 154.667-154.667v-54.559c0-85.42-69.247-154.667-154.667-154.667h-115.2c-9.311 0-18.517 0.823-27.545 2.445l-1.255 0.226v-110.001l73.482 75.045zM349.867 434.133h55.467c48.896 0 88.533 39.638 88.533 88.533s-39.638 88.533-88.533 88.533h-55.467c-48.896 0-88.533-39.638-88.533-88.533s39.638-88.533 88.533-88.533z"></path>
    </symbol>

    <symbol id="putdown" viewBox="0 0 598 1024">
      <title>Putdown icon </title>
      <path d="M356.594 706.225l88.832 90.722-219.798 224.474-1.577-1.611-1.577 1.611-219.798-224.474 88.832-90.722 66.153 67.56v-771.649h125.605v23.948l1.254-0.228c9.084-1.648 18.351-2.483 27.724-2.483h130.567c85.242 0 154.345 69.103 154.345 154.345v80.95c0 85.242-69.103 154.345-154.345 154.345h-130.649c-9.346 0-18.585-0.83-27.643-2.468l-1.254-0.227v370.796l73.329-74.889zM224.051 1022.853l0.761-0.777h-1.521l0.761 0.777zM363.609 110.142c-59.137 0-107.077 47.94-107.077 107.077s47.94 107.077 107.077 107.077h40.869c58.535 0 106.312-46.828 107.488-105.351l0.034-1.704c0.014-0.703 0.021-1.405 0.021-2.108 0-57.984-47.006-104.99-104.99-104.99h-43.422z"></path>
    </symbol>

    <symbol id="chair" viewBox="0 0 768 1024">
      <title>Chair icon</title>
  <path d="M615.467 1022.933h151.467v-573.867h-614.4v-448h-151.467v582.4h614.4v439.467z"></path>
  </symbol>

  <symbol id="upstairs" viewBox="0 0 1009 1024">
    <title>Upstairs icon</title>
    <path d="M843.48 641.981h-337.814v380.041h-504.61v-124.569h380.041v-380.041h337.814v-266.622l-65.607 65.607-88.084-88.084 137.987-137.987-0.75-0.75 88.084-88.084 216.477 216.477-88.084 88.084-75.454-75.454v411.382z"></path>
  </symbol>

  <symbol id="jump" viewBox="0 0 512 512">
  <title>Jump icon</title>
  <path d="M99.868 318.514v56.748c0 83.149 51.243 129.824 114.456 129.824v0 0c30.356 0 60.788 0.724 82.254-27.511s32.202-62.382 32.202-102.313v-322.935l-65.403 0.583v323.734c0 35.635-21.961 63.142-49.053 63.142v0c0-0.461 0-0.577 0-1.037-24.448 4.147-49.053-27.851-49.053-63.486v-56.751l-65.403 0z"></path>
  <path d="M178.844 130.125l105.288-121.749 47.971 41.486-105.288 121.749-47.971-41.486z"></path>
  <path d="M284.978 6.91l127.154 103.706-40.086 49.148-127.154-103.706 40.086-49.148z"></path>
</symbol>

<symbol id="cross" viewBox="0 0 512 512">
<title>Cross icon</title>
<path  d="M108.552 2.894l376.474 448.666-68.841 57.764-376.474-448.666 68.841-57.764z"></path>
<path d="M26.974 451.341l376.474-448.666 68.841 57.764-376.474 448.666-68.841-57.764z"></path>
</symbol>

<symbol id="stop"  viewBox="0 0 512 512">
<title>Stop icon</title>
<path d="M0.13 220.184h437.317v75.2h-437.317v-75.2z"></path>
<path d="M511.87 112v288h-75.2v-288h75.2z"></path>
</symbol>

<symbol id="take" viewBox="0 0 512 512">
<title>Take icon </title>
<path d="M87.359 102.291h424.409v67.995h-424.409v-67.996z"></path>
<path d="M327.925 165.537v350.099h-67.995v-350.099h67.995z"></path>
<path  d="M2.549 136.337l106.43-107.975 48.423 47.731-106.43 107.974-48.423-47.731z"></path>
<path  d="M47.529 90.371l109.129 105.665-47.297 48.849-109.129-105.665 47.297-48.849z"></path>
</symbol>


</svg>
